# xmcd CD database file
#
# Track frame offsets:
#	150
#	17435
#	39940
#	54726
#	76173
#	100713
#	115826
#	136625
#	160764
#	188658
#
# Disc length: 2743 seconds
#
# Revision: 0
# Processed by: cddbd v1.5.1PL2 Copyright (c) Steve Scherf et al.
# Submitted via: CDex 1.51
#
DISCID=670ab50a
DTITLE=Paula Sannerholm - Yesterday
DYEAR=2006
DGENRE=Jazz
TTITLE0=Do Nothin' Till You Hear From Me
TTITLE1=Love Me Or Leave Me
TTITLE2=What A Little Moonlight Can Do
TTITLE3=The Man I Love
TTITLE4=Yesterday
TTITLE5=My Foolish Heart
TTITLE6=On The Sunny Side Of The Street
TTITLE7=Fine And Mellow
TTITLE8=You Don't Know What Love Is
TTITLE9=I've Seen
EXTD=YEAR: 2006
EXTT0=
EXTT1=
EXTT2=
EXTT3=
EXTT4=
EXTT5=
EXTT6=
EXTT7=
EXTT8=
EXTT9=
PLAYORDER=
